solid OpenSCAD_Model
  facet normal 0.000000 -1.000000 0.000000
    outer loop
      vertex -13.098278 0.000000 3.763627
      vertex -16.800000 0.000000 0.000000
      vertex 23.000000 0.000000 0.000000
    endloop
  endfacet
  facet normal 0.000000 -1.000000 0.000000
    outer loop
      vertex 16.320163 0.000000 2.907676
      vertex -16.800000 0.000000 10.000000
      vertex 23.000000 0.000000 0.000000
    endloop
  endfacet
  facet normal 0.000000 -1.000000 0.000000
    outer loop
      vertex -16.800000 0.000000 10.000000
      vertex -16.800000 0.000000 0.000000
      vertex -14.551722 0.000000 4.235879
    endloop
  endfacet
  facet normal 0.000000 -1.000000 0.000000
    outer loop
      vertex -12.448278 0.000000 4.235879
      vertex -13.098278 0.000000 3.763627
      vertex 23.000000 0.000000 0.000000
    endloop
  endfacet
  facet normal 0.000000 -1.000000 0.000000
    outer loop
      vertex -16.800000 0.000000 10.000000
      vertex -14.551722 0.000000 4.235879
      vertex -14.800000 0.000000 5.000000
    endloop
  endfacet
  facet normal 0.000000 -1.000000 0.000000
    outer loop
      vertex -4.401722 0.000000 3.763627
      vertex -12.448278 0.000000 4.235879
      vertex 23.000000 0.000000 0.000000
    endloop
  endfacet
  facet normal 0.000000 -1.000000 0.000000
    outer loop
      vertex -16.800000 0.000000 10.000000
      vertex -14.800000 0.000000 5.000000
      vertex -14.551722 0.000000 5.764121
    endloop
  endfacet
  facet normal 0.000000 -1.000000 0.000000
    outer loop
      vertex -12.448278 0.000000 5.764121
      vertex -12.200000 0.000000 5.000000
      vertex -5.051722 0.000000 4.235879
    endloop
  endfacet
  facet normal 0.000000 -1.000000 0.000000
    outer loop
      vertex -16.800000 0.000000 10.000000
      vertex -14.551722 0.000000 5.764121
      vertex -13.901722 0.000000 6.236373
    endloop
  endfacet
  facet normal 0.000000 -1.000000 0.000000
    outer loop
      vertex -16.800000 0.000000 10.000000
      vertex -13.901722 0.000000 6.236373
      vertex -13.098278 0.000000 6.236373
    endloop
  endfacet
  facet normal 0.000000 -1.000000 0.000000
    outer loop
      vertex -13.901722 0.000000 3.763627
      vertex -16.800000 0.000000 0.000000
      vertex -13.098278 0.000000 3.763627
    endloop
  endfacet
  facet normal 0.000000 -1.000000 0.000000
    outer loop
      vertex -14.551722 0.000000 4.235879
      vertex -16.800000 0.000000 0.000000
      vertex -13.901722 0.000000 3.763627
    endloop
  endfacet
  facet normal 0.000000 -1.000000 0.000000
    outer loop
      vertex -2.948278 0.000000 4.235879
      vertex -3.598278 0.000000 3.763627
      vertex 23.000000 0.000000 0.000000
    endloop
  endfacet
  facet normal 0.000000 -1.000000 0.000000
    outer loop
      vertex -16.800000 0.000000 10.000000
      vertex -13.098278 0.000000 6.236373
      vertex -5.300000 0.000000 5.000000
    endloop
  endfacet
  facet normal 0.000000 -1.000000 0.000000
    outer loop
      vertex -2.700000 0.000000 5.000000
      vertex -2.948278 0.000000 4.235879
      vertex 23.000000 0.000000 0.000000
    endloop
  endfacet
  facet normal 0.000000 -1.000000 0.000000
    outer loop
      vertex -16.800000 0.000000 10.000000
      vertex -5.300000 0.000000 5.000000
      vertex -5.051722 0.000000 5.764121
    endloop
  endfacet
  facet normal 0.000000 -1.000000 0.000000
    outer loop
      vertex -2.948278 0.000000 5.764121
      vertex -2.700000 0.000000 5.000000
      vertex 23.000000 0.000000 0.000000
    endloop
  endfacet
  facet normal 0.000000 -1.000000 0.000000
    outer loop
      vertex -16.800000 0.000000 10.000000
      vertex -5.051722 0.000000 5.764121
      vertex -4.401722 0.000000 6.236373
    endloop
  endfacet
  facet normal 0.000000 -1.000000 0.000000
    outer loop
      vertex -16.800000 0.000000 10.000000
      vertex -3.598278 0.000000 6.236373
      vertex 23.000000 0.000000 0.000000
    endloop
  endfacet
  facet normal 0.000000 -1.000000 0.000000
    outer loop
      vertex -16.800000 0.000000 10.000000
      vertex -4.401722 0.000000 6.236373
      vertex -3.598278 0.000000 6.236373
    endloop
  endfacet
  facet normal -0.000000 -1.000000 0.000000
    outer loop
      vertex 16.320163 0.000000 7.092324
      vertex 17.679837 0.000000 7.092324
      vertex 23.000000 0.000000 10.000000
    endloop
  endfacet
  facet normal 0.000000 -1.000000 0.000000
    outer loop
      vertex -5.051722 0.000000 4.235879
      vertex -13.098278 0.000000 6.236373
      vertex -12.448278 0.000000 5.764121
    endloop
  endfacet
  facet normal 0.000000 -1.000000 0.000000
    outer loop
      vertex -3.598278 0.000000 3.763627
      vertex -4.401722 0.000000 3.763627
      vertex 23.000000 0.000000 0.000000
    endloop
  endfacet
  facet normal 0.000000 -1.000000 0.000000
    outer loop
      vertex -4.401722 0.000000 3.763627
      vertex -5.051722 0.000000 4.235879
      vertex -12.200000 0.000000 5.000000
    endloop
  endfacet
  facet normal 0.000000 -1.000000 0.000000
    outer loop
      vertex 14.800000 0.000000 5.000000
      vertex -16.800000 0.000000 10.000000
      vertex 15.220163 0.000000 3.706872
    endloop
  endfacet
  facet normal 0.000000 -1.000000 0.000000
    outer loop
      vertex 17.679837 0.000000 2.907676
      vertex 16.320163 0.000000 2.907676
      vertex 23.000000 0.000000 0.000000
    endloop
  endfacet
  facet normal 0.000000 -1.000000 0.000000
    outer loop
      vertex 15.220163 0.000000 6.293128
      vertex -16.800000 0.000000 10.000000
      vertex 14.800000 0.000000 5.000000
    endloop
  endfacet
  facet normal 0.000000 -1.000000 0.000000
    outer loop
      vertex 16.320163 0.000000 7.092324
      vertex -16.800000 0.000000 10.000000
      vertex 15.220163 0.000000 6.293128
    endloop
  endfacet
  facet normal 0.000000 -1.000000 0.000000
    outer loop
      vertex 23.000000 0.000000 10.000000
      vertex -16.800000 0.000000 10.000000
      vertex 16.320163 0.000000 7.092324
    endloop
  endfacet
  facet normal 0.000000 -1.000000 0.000000
    outer loop
      vertex 23.000000 0.000000 10.000000
      vertex 18.779837 0.000000 6.293128
      vertex 23.000000 0.000000 0.000000
    endloop
  endfacet
  facet normal 0.000000 -1.000000 0.000000
    outer loop
      vertex 18.779837 0.000000 6.293128
      vertex 19.200000 0.000000 5.000000
      vertex 23.000000 0.000000 0.000000
    endloop
  endfacet
  facet normal 0.000000 -1.000000 0.000000
    outer loop
      vertex 19.200000 0.000000 5.000000
      vertex 18.779837 0.000000 3.706872
      vertex 23.000000 0.000000 0.000000
    endloop
  endfacet
  facet normal 0.000000 -1.000000 0.000000
    outer loop
      vertex 18.779837 0.000000 3.706872
      vertex 17.679837 0.000000 2.907676
      vertex 23.000000 0.000000 0.000000
    endloop
  endfacet
  facet normal 0.000000 -1.000000 0.000000
    outer loop
      vertex 15.220163 0.000000 3.706872
      vertex -16.800000 0.000000 10.000000
      vertex 16.320163 0.000000 2.907676
    endloop
  endfacet
  facet normal 0.000000 -1.000000 0.000000
    outer loop
      vertex -3.598278 0.000000 6.236373
      vertex -2.948278 0.000000 5.764121
      vertex 23.000000 0.000000 0.000000
    endloop
  endfacet
  facet normal -0.000000 -1.000000 0.000000
    outer loop
      vertex 17.679837 0.000000 7.092324
      vertex 18.779837 0.000000 6.293128
      vertex 23.000000 0.000000 10.000000
    endloop
  endfacet
  facet normal 0.000000 -1.000000 0.000000
    outer loop
      vertex -12.200000 0.000000 5.000000
      vertex -12.448278 0.000000 4.235879
      vertex -4.401722 0.000000 3.763627
    endloop
  endfacet
  facet normal 0.000000 -1.000000 0.000000
    outer loop
      vertex -5.051722 0.000000 4.235879
      vertex -5.300000 0.000000 5.000000
      vertex -13.098278 0.000000 6.236373
    endloop
  endfacet
  facet normal -0.000000 -0.000000 -1.000000
    outer loop
      vertex -16.800000 0.000000 0.000000
      vertex -16.800000 4.000000 0.000000
      vertex 23.000000 0.000000 0.000000
    endloop
  endfacet
  facet normal 0.000000 0.000000 -1.000000
    outer loop
      vertex 23.000000 0.000000 0.000000
      vertex -16.800000 4.000000 0.000000
      vertex 0.969525 4.000000 0.000000
    endloop
  endfacet
  facet normal 0.000000 0.000000 -1.000000
    outer loop
      vertex 5.400000 3.862693 0.000000
      vertex 0.969525 4.000000 0.000000
      vertex 0.367076 5.182373 0.000000
    endloop
  endfacet
  facet normal 0.000000 0.000000 -1.000000
    outer loop
      vertex 3.553291 6.063515 0.000000
      vertex 0.367076 5.182373 0.000000
      vertex 0.000000 7.500000 0.000000
    endloop
  endfacet
  facet normal 0.000000 0.000000 -1.000000
    outer loop
      vertex 3.300000 7.500000 0.000000
      vertex 0.000000 7.500000 0.000000
      vertex 0.367076 9.817627 0.000000
    endloop
  endfacet
  facet normal 0.000000 0.000000 -1.000000
    outer loop
      vertex 4.282613 10.199708 0.000000
      vertex 0.367076 9.817627 0.000000
      vertex 1.432373 11.908389 0.000000
    endloop
  endfacet
  facet normal 0.000000 0.000000 -1.000000
    outer loop
      vertex 5.400000 11.137307 0.000000
      vertex 1.432373 11.908389 0.000000
      vertex 3.091611 13.567627 0.000000
    endloop
  endfacet
  facet normal 0.000000 0.000000 -1.000000
    outer loop
      vertex 8.229322 11.636193 0.000000
      vertex 3.091611 13.567627 0.000000
      vertex 5.182373 14.632924 0.000000
    endloop
  endfacet
  facet normal 0.000000 0.000000 -1.000000
    outer loop
      vertex 9.600000 11.137307 0.000000
      vertex 5.182373 14.632924 0.000000
      vertex 7.500000 15.000000 0.000000
    endloop
  endfacet
  facet normal 0.000000 0.000000 -1.000000
    outer loop
      vertex 23.000000 10.950000 0.000000
      vertex 7.500000 15.000000 0.000000
      vertex 23.000000 15.000000 0.000000
    endloop
  endfacet
  facet normal -0.000000 -0.000000 -1.000000
    outer loop
      vertex 8.229322 11.636193 0.000000
      vertex 5.182373 14.632924 0.000000
      vertex 9.600000 11.137307 0.000000
    endloop
  endfacet
  facet normal 0.000000 0.000000 -1.000000
    outer loop
      vertex 9.823224 10.950000 0.000000
      vertex 9.600000 11.137307 0.000000
      vertex 7.500000 15.000000 0.000000
    endloop
  endfacet
  facet normal -0.000000 -0.000000 -1.000000
    outer loop
      vertex 6.770678 11.636193 0.000000
      vertex 3.091611 13.567627 0.000000
      vertex 8.229322 11.636193 0.000000
    endloop
  endfacet
  facet normal 0.000000 -0.000000 -1.000000
    outer loop
      vertex 5.400000 11.137307 0.000000
      vertex 3.091611 13.567627 0.000000
      vertex 6.770678 11.636193 0.000000
    endloop
  endfacet
  facet normal 0.000000 -0.000000 -1.000000
    outer loop
      vertex 4.282613 10.199708 0.000000
      vertex 1.432373 11.908389 0.000000
      vertex 5.400000 11.137307 0.000000
    endloop
  endfacet
  facet normal 0.000000 -0.000000 -1.000000
    outer loop
      vertex 3.553291 8.936485 0.000000
      vertex 0.367076 9.817627 0.000000
      vertex 4.282613 10.199708 0.000000
    endloop
  endfacet
  facet normal 0.000000 -0.000000 -1.000000
    outer loop
      vertex 3.300000 7.500000 0.000000
      vertex 0.367076 9.817627 0.000000
      vertex 3.553291 8.936485 0.000000
    endloop
  endfacet
  facet normal 0.000000 0.000000 -1.000000
    outer loop
      vertex 3.553291 6.063515 0.000000
      vertex 0.000000 7.500000 0.000000
      vertex 3.300000 7.500000 0.000000
    endloop
  endfacet
  facet normal 0.000000 0.000000 -1.000000
    outer loop
      vertex 4.282613 4.800292 0.000000
      vertex 0.367076 5.182373 0.000000
      vertex 3.553291 6.063515 0.000000
    endloop
  endfacet
  facet normal 0.000000 0.000000 -1.000000
    outer loop
      vertex 5.400000 3.862693 0.000000
      vertex 0.367076 5.182373 0.000000
      vertex 4.282613 4.800292 0.000000
    endloop
  endfacet
  facet normal 0.000000 0.000000 -1.000000
    outer loop
      vertex 6.770678 3.363807 0.000000
      vertex 0.969525 4.000000 0.000000
      vertex 5.400000 3.862693 0.000000
    endloop
  endfacet
  facet normal 0.000000 0.000000 -1.000000
    outer loop
      vertex 8.229322 3.363807 0.000000
      vertex 23.000000 0.000000 0.000000
      vertex 6.770678 3.363807 0.000000
    endloop
  endfacet
  facet normal 0.000000 0.000000 -1.000000
    outer loop
      vertex 23.000000 0.000000 0.000000
      vertex 0.969525 4.000000 0.000000
      vertex 6.770678 3.363807 0.000000
    endloop
  endfacet
  facet normal 0.000000 0.000000 -1.000000
    outer loop
      vertex 9.600000 3.862693 0.000000
      vertex 23.000000 0.000000 0.000000
      vertex 8.229322 3.363807 0.000000
    endloop
  endfacet
  facet normal 0.000000 0.000000 -1.000000
    outer loop
      vertex 23.000000 4.050000 0.000000
      vertex 23.000000 0.000000 0.000000
      vertex 9.823224 4.050000 0.000000
    endloop
  endfacet
  facet normal 0.000000 0.000000 -1.000000
    outer loop
      vertex 23.000000 0.000000 0.000000
      vertex 9.600000 3.862693 0.000000
      vertex 9.823224 4.050000 0.000000
    endloop
  endfacet
  facet normal -0.000000 -0.000000 -1.000000
    outer loop
      vertex 9.823224 10.950000 0.000000
      vertex 7.500000 15.000000 0.000000
      vertex 23.000000 10.950000 0.000000
    endloop
  endfacet
  facet normal -1.000000 0.000000 0.000000
    outer loop
      vertex -16.800000 4.000000 10.000000
      vertex -16.800000 4.000000 0.000000
      vertex -16.800000 0.000000 10.000000
    endloop
  endfacet
  facet normal -1.000000 0.000000 0.000000
    outer loop
      vertex -16.800000 0.000000 10.000000
      vertex -16.800000 4.000000 0.000000
      vertex -16.800000 0.000000 0.000000
    endloop
  endfacet
  facet normal 0.000000 -0.000000 1.000000
    outer loop
      vertex -16.800000 4.000000 10.000000
      vertex -16.800000 0.000000 10.000000
      vertex 23.000000 0.000000 10.000000
    endloop
  endfacet
  facet normal 0.000000 0.000000 1.000000
    outer loop
      vertex 5.400000 3.862693 10.000000
      vertex 0.969525 4.000000 10.000000
      vertex -16.800000 4.000000 10.000000
    endloop
  endfacet
  facet normal -0.000000 -0.000000 1.000000
    outer loop
      vertex 6.770678 3.363807 10.000000
      vertex -16.800000 4.000000 10.000000
      vertex 23.000000 0.000000 10.000000
    endloop
  endfacet
  facet normal 0.000000 0.000000 1.000000
    outer loop
      vertex 23.000000 4.050000 10.000000
      vertex 9.600000 3.862693 10.000000
      vertex 23.000000 0.000000 10.000000
    endloop
  endfacet
  facet normal 0.000000 0.000000 1.000000
    outer loop
      vertex 0.367076 9.817627 10.000000
      vertex 3.553291 8.936485 10.000000
      vertex 4.282613 10.199708 10.000000
    endloop
  endfacet
  facet normal 0.000000 -0.000000 1.000000
    outer loop
      vertex 9.600000 3.862693 10.000000
      vertex 8.229322 3.363807 10.000000
      vertex 23.000000 0.000000 10.000000
    endloop
  endfacet
  facet normal 0.000000 -0.000000 1.000000
    outer loop
      vertex 8.229322 3.363807 10.000000
      vertex 6.770678 3.363807 10.000000
      vertex 23.000000 0.000000 10.000000
    endloop
  endfacet
  facet normal 0.000000 -0.000000 1.000000
    outer loop
      vertex 0.367076 9.817627 10.000000
      vertex 0.000000 7.500000 10.000000
      vertex 3.553291 8.936485 10.000000
    endloop
  endfacet
  facet normal 0.000000 0.000000 1.000000
    outer loop
      vertex 0.367076 5.182373 10.000000
      vertex 0.969525 4.000000 10.000000
      vertex 4.282613 4.800292 10.000000
    endloop
  endfacet
  facet normal 0.000000 0.000000 1.000000
    outer loop
      vertex 0.000000 7.500000 10.000000
      vertex 3.553291 6.063515 10.000000
      vertex 3.300000 7.500000 10.000000
    endloop
  endfacet
  facet normal 0.000000 0.000000 1.000000
    outer loop
      vertex 0.000000 7.500000 10.000000
      vertex 0.367076 5.182373 10.000000
      vertex 3.553291 6.063515 10.000000
    endloop
  endfacet
  facet normal 0.000000 0.000000 1.000000
    outer loop
      vertex 23.000000 15.000000 10.000000
      vertex 6.770678 11.636193 10.000000
      vertex 8.229322 11.636193 10.000000
    endloop
  endfacet
  facet normal 0.000000 0.000000 1.000000
    outer loop
      vertex 23.000000 10.950000 10.000000
      vertex 8.229322 11.636193 10.000000
      vertex 9.600000 11.137307 10.000000
    endloop
  endfacet
  facet normal 0.000000 -0.000000 1.000000
    outer loop
      vertex 3.091611 13.567627 10.000000
      vertex 1.432373 11.908389 10.000000
      vertex 7.500000 15.000000 10.000000
    endloop
  endfacet
  facet normal 0.000000 0.000000 1.000000
    outer loop
      vertex 23.000000 15.000000 10.000000
      vertex 8.229322 11.636193 10.000000
      vertex 23.000000 10.950000 10.000000
    endloop
  endfacet
  facet normal 0.000000 -0.000000 1.000000
    outer loop
      vertex 7.500000 15.000000 10.000000
      vertex 6.770678 11.636193 10.000000
      vertex 23.000000 15.000000 10.000000
    endloop
  endfacet
  facet normal 0.000000 0.000000 1.000000
    outer loop
      vertex 0.367076 9.817627 10.000000
      vertex 5.400000 11.137307 10.000000
      vertex 6.770678 11.636193 10.000000
    endloop
  endfacet
  facet normal 0.000000 -0.000000 1.000000
    outer loop
      vertex 5.182373 14.632924 10.000000
      vertex 3.091611 13.567627 10.000000
      vertex 7.500000 15.000000 10.000000
    endloop
  endfacet
  facet normal 0.000000 0.000000 1.000000
    outer loop
      vertex 7.500000 15.000000 10.000000
      vertex 1.432373 11.908389 10.000000
      vertex 6.770678 11.636193 10.000000
    endloop
  endfacet
  facet normal 0.000000 -0.000000 1.000000
    outer loop
      vertex 1.432373 11.908389 10.000000
      vertex 0.367076 9.817627 10.000000
      vertex 6.770678 11.636193 10.000000
    endloop
  endfacet
  facet normal 0.000000 0.000000 1.000000
    outer loop
      vertex 3.553291 8.936485 10.000000
      vertex 0.000000 7.500000 10.000000
      vertex 3.300000 7.500000 10.000000
    endloop
  endfacet
  facet normal 0.000000 -0.000000 1.000000
    outer loop
      vertex 3.553291 6.063515 10.000000
      vertex 0.367076 5.182373 10.000000
      vertex 4.282613 4.800292 10.000000
    endloop
  endfacet
  facet normal 0.000000 0.000000 1.000000
    outer loop
      vertex 6.770678 3.363807 10.000000
      vertex 5.400000 3.862693 10.000000
      vertex -16.800000 4.000000 10.000000
    endloop
  endfacet
  facet normal 0.000000 0.000000 1.000000
    outer loop
      vertex 9.823224 10.950000 10.000000
      vertex 23.000000 10.950000 10.000000
      vertex 9.600000 11.137307 10.000000
    endloop
  endfacet
  facet normal 0.000000 0.000000 1.000000
    outer loop
      vertex 0.367076 9.817627 10.000000
      vertex 4.282613 10.199708 10.000000
      vertex 5.400000 11.137307 10.000000
    endloop
  endfacet
  facet normal 0.000000 -0.000000 1.000000
    outer loop
      vertex 9.823224 4.050000 10.000000
      vertex 9.600000 3.862693 10.000000
      vertex 23.000000 4.050000 10.000000
    endloop
  endfacet
  facet normal 0.000000 0.000000 1.000000
    outer loop
      vertex 5.400000 3.862693 10.000000
      vertex 4.282613 4.800292 10.000000
      vertex 0.969525 4.000000 10.000000
    endloop
  endfacet
  facet normal 1.000000 0.000000 -0.000000
    outer loop
      vertex 23.000000 0.000000 10.000000
      vertex 23.000000 0.000000 0.000000
      vertex 23.000000 4.050000 0.000000
    endloop
  endfacet
  facet normal 1.000000 0.000000 0.000000
    outer loop
      vertex 23.000000 4.050000 10.000000
      vertex 23.000000 0.000000 10.000000
      vertex 23.000000 4.050000 0.000000
    endloop
  endfacet
  facet normal 0.951057 0.000000 0.309017
    outer loop
      vertex -14.551722 0.000000 4.235879
      vertex -14.551722 4.000000 4.235879
      vertex -14.800000 4.000000 5.000000
    endloop
  endfacet
  facet normal 0.951057 0.000000 0.309017
    outer loop
      vertex -14.800000 0.000000 5.000000
      vertex -14.551722 0.000000 4.235879
      vertex -14.800000 4.000000 5.000000
    endloop
  endfacet
  facet normal 0.587785 0.000000 0.809017
    outer loop
      vertex -13.901722 0.000000 3.763627
      vertex -13.901722 4.000000 3.763627
      vertex -14.551722 4.000000 4.235879
    endloop
  endfacet
  facet normal 0.587785 0.000000 0.809017
    outer loop
      vertex -14.551722 0.000000 4.235879
      vertex -13.901722 0.000000 3.763627
      vertex -14.551722 4.000000 4.235879
    endloop
  endfacet
  facet normal 0.000000 0.000000 1.000000
    outer loop
      vertex -13.098278 0.000000 3.763627
      vertex -13.098278 4.000000 3.763627
      vertex -13.901722 4.000000 3.763627
    endloop
  endfacet
  facet normal 0.000000 0.000000 1.000000
    outer loop
      vertex -13.901722 0.000000 3.763627
      vertex -13.098278 0.000000 3.763627
      vertex -13.901722 4.000000 3.763627
    endloop
  endfacet
  facet normal -0.587785 0.000000 0.809017
    outer loop
      vertex -12.448278 0.000000 4.235879
      vertex -12.448278 4.000000 4.235879
      vertex -13.098278 4.000000 3.763627
    endloop
  endfacet
  facet normal -0.587785 0.000000 0.809017
    outer loop
      vertex -13.098278 0.000000 3.763627
      vertex -12.448278 0.000000 4.235879
      vertex -13.098278 4.000000 3.763627
    endloop
  endfacet
  facet normal -0.951057 0.000000 0.309017
    outer loop
      vertex -12.200000 4.000000 5.000000
      vertex -12.448278 4.000000 4.235879
      vertex -12.200000 0.000000 5.000000
    endloop
  endfacet
  facet normal -0.951057 0.000000 0.309017
    outer loop
      vertex -12.200000 0.000000 5.000000
      vertex -12.448278 4.000000 4.235879
      vertex -12.448278 0.000000 4.235879
    endloop
  endfacet
  facet normal -0.951057 -0.000000 -0.309017
    outer loop
      vertex -12.200000 4.000000 5.000000
      vertex -12.200000 0.000000 5.000000
      vertex -12.448278 4.000000 5.764121
    endloop
  endfacet
  facet normal -0.951057 0.000000 -0.309017
    outer loop
      vertex -12.448278 4.000000 5.764121
      vertex -12.200000 0.000000 5.000000
      vertex -12.448278 0.000000 5.764121
    endloop
  endfacet
  facet normal -0.587785 0.000000 -0.809017
    outer loop
      vertex -12.448278 4.000000 5.764121
      vertex -12.448278 0.000000 5.764121
      vertex -13.098278 4.000000 6.236373
    endloop
  endfacet
  facet normal -0.587785 0.000000 -0.809017
    outer loop
      vertex -13.098278 4.000000 6.236373
      vertex -12.448278 0.000000 5.764121
      vertex -13.098278 0.000000 6.236373
    endloop
  endfacet
  facet normal 0.000000 0.000000 -1.000000
    outer loop
      vertex -13.098278 4.000000 6.236373
      vertex -13.098278 0.000000 6.236373
      vertex -13.901722 4.000000 6.236373
    endloop
  endfacet
  facet normal 0.000000 0.000000 -1.000000
    outer loop
      vertex -13.901722 4.000000 6.236373
      vertex -13.098278 0.000000 6.236373
      vertex -13.901722 0.000000 6.236373
    endloop
  endfacet
  facet normal 0.587785 0.000000 -0.809017
    outer loop
      vertex -13.901722 4.000000 6.236373
      vertex -13.901722 0.000000 6.236373
      vertex -14.551722 4.000000 5.764121
    endloop
  endfacet
  facet normal 0.587785 0.000000 -0.809017
    outer loop
      vertex -14.551722 4.000000 5.764121
      vertex -13.901722 0.000000 6.236373
      vertex -14.551722 0.000000 5.764121
    endloop
  endfacet
  facet normal 0.951057 0.000000 -0.309017
    outer loop
      vertex -14.800000 4.000000 5.000000
      vertex -14.551722 4.000000 5.764121
      vertex -14.551722 0.000000 5.764121
    endloop
  endfacet
  facet normal 0.951057 -0.000000 -0.309017
    outer loop
      vertex -14.800000 0.000000 5.000000
      vertex -14.800000 4.000000 5.000000
      vertex -14.551722 0.000000 5.764121
    endloop
  endfacet
  facet normal 0.951057 0.000000 0.309017
    outer loop
      vertex -5.051722 0.000000 4.235879
      vertex -5.051722 4.000000 4.235879
      vertex -5.300000 4.000000 5.000000
    endloop
  endfacet
  facet normal 0.951057 0.000000 0.309017
    outer loop
      vertex -5.300000 0.000000 5.000000
      vertex -5.051722 0.000000 4.235879
      vertex -5.300000 4.000000 5.000000
    endloop
  endfacet
  facet normal 0.587785 0.000000 0.809017
    outer loop
      vertex -4.401722 0.000000 3.763627
      vertex -4.401722 4.000000 3.763627
      vertex -5.051722 4.000000 4.235879
    endloop
  endfacet
  facet normal 0.587785 0.000000 0.809017
    outer loop
      vertex -5.051722 0.000000 4.235879
      vertex -4.401722 0.000000 3.763627
      vertex -5.051722 4.000000 4.235879
    endloop
  endfacet
  facet normal 0.000000 0.000000 1.000000
    outer loop
      vertex -3.598278 0.000000 3.763627
      vertex -3.598278 4.000000 3.763627
      vertex -4.401722 4.000000 3.763627
    endloop
  endfacet
  facet normal 0.000000 0.000000 1.000000
    outer loop
      vertex -4.401722 0.000000 3.763627
      vertex -3.598278 0.000000 3.763627
      vertex -4.401722 4.000000 3.763627
    endloop
  endfacet
  facet normal -0.587785 0.000000 0.809017
    outer loop
      vertex -2.948278 0.000000 4.235879
      vertex -2.948278 4.000000 4.235879
      vertex -3.598278 4.000000 3.763627
    endloop
  endfacet
  facet normal -0.587785 0.000000 0.809017
    outer loop
      vertex -3.598278 0.000000 3.763627
      vertex -2.948278 0.000000 4.235879
      vertex -3.598278 4.000000 3.763627
    endloop
  endfacet
  facet normal -0.951057 0.000000 0.309017
    outer loop
      vertex -2.700000 4.000000 5.000000
      vertex -2.948278 4.000000 4.235879
      vertex -2.700000 0.000000 5.000000
    endloop
  endfacet
  facet normal -0.951057 0.000000 0.309017
    outer loop
      vertex -2.700000 0.000000 5.000000
      vertex -2.948278 4.000000 4.235879
      vertex -2.948278 0.000000 4.235879
    endloop
  endfacet
  facet normal -0.951057 -0.000000 -0.309017
    outer loop
      vertex -2.700000 4.000000 5.000000
      vertex -2.700000 0.000000 5.000000
      vertex -2.948278 4.000000 5.764121
    endloop
  endfacet
  facet normal -0.951057 0.000000 -0.309017
    outer loop
      vertex -2.948278 4.000000 5.764121
      vertex -2.700000 0.000000 5.000000
      vertex -2.948278 0.000000 5.764121
    endloop
  endfacet
  facet normal -0.587785 0.000000 -0.809017
    outer loop
      vertex -2.948278 4.000000 5.764121
      vertex -2.948278 0.000000 5.764121
      vertex -3.598278 4.000000 6.236373
    endloop
  endfacet
  facet normal -0.587785 0.000000 -0.809017
    outer loop
      vertex -3.598278 4.000000 6.236373
      vertex -2.948278 0.000000 5.764121
      vertex -3.598278 0.000000 6.236373
    endloop
  endfacet
  facet normal 0.000000 0.000000 -1.000000
    outer loop
      vertex -3.598278 4.000000 6.236373
      vertex -3.598278 0.000000 6.236373
      vertex -4.401722 4.000000 6.236373
    endloop
  endfacet
  facet normal 0.000000 0.000000 -1.000000
    outer loop
      vertex -4.401722 4.000000 6.236373
      vertex -3.598278 0.000000 6.236373
      vertex -4.401722 0.000000 6.236373
    endloop
  endfacet
  facet normal 0.587785 0.000000 -0.809017
    outer loop
      vertex -4.401722 4.000000 6.236373
      vertex -4.401722 0.000000 6.236373
      vertex -5.051722 4.000000 5.764121
    endloop
  endfacet
  facet normal 0.587785 0.000000 -0.809017
    outer loop
      vertex -5.051722 4.000000 5.764121
      vertex -4.401722 0.000000 6.236373
      vertex -5.051722 0.000000 5.764121
    endloop
  endfacet
  facet normal 0.951057 0.000000 -0.309017
    outer loop
      vertex -5.300000 4.000000 5.000000
      vertex -5.051722 4.000000 5.764121
      vertex -5.051722 0.000000 5.764121
    endloop
  endfacet
  facet normal 0.951057 -0.000000 -0.309017
    outer loop
      vertex -5.300000 0.000000 5.000000
      vertex -5.300000 4.000000 5.000000
      vertex -5.051722 0.000000 5.764121
    endloop
  endfacet
  facet normal 0.951056 0.000000 0.309017
    outer loop
      vertex 15.220163 0.000000 3.706872
      vertex 15.220163 4.050000 3.706872
      vertex 14.800000 4.050000 5.000000
    endloop
  endfacet
  facet normal 0.951056 0.000000 0.309017
    outer loop
      vertex 14.800000 0.000000 5.000000
      vertex 15.220163 0.000000 3.706872
      vertex 14.800000 4.050000 5.000000
    endloop
  endfacet
  facet normal 0.587785 0.000000 0.809017
    outer loop
      vertex 16.320163 0.000000 2.907676
      vertex 16.320163 4.050000 2.907676
      vertex 15.220163 4.050000 3.706872
    endloop
  endfacet
  facet normal 0.587785 0.000000 0.809017
    outer loop
      vertex 15.220163 0.000000 3.706872
      vertex 16.320163 0.000000 2.907676
      vertex 15.220163 4.050000 3.706872
    endloop
  endfacet
  facet normal 0.000000 0.000000 1.000000
    outer loop
      vertex 17.679837 0.000000 2.907676
      vertex 17.679837 4.050000 2.907676
      vertex 16.320163 4.050000 2.907676
    endloop
  endfacet
  facet normal 0.000000 0.000000 1.000000
    outer loop
      vertex 16.320163 0.000000 2.907676
      vertex 17.679837 0.000000 2.907676
      vertex 16.320163 4.050000 2.907676
    endloop
  endfacet
  facet normal -0.587785 0.000000 0.809017
    outer loop
      vertex 18.779837 0.000000 3.706872
      vertex 18.779837 4.050000 3.706872
      vertex 17.679837 4.050000 2.907676
    endloop
  endfacet
  facet normal -0.587785 0.000000 0.809017
    outer loop
      vertex 17.679837 0.000000 2.907676
      vertex 18.779837 0.000000 3.706872
      vertex 17.679837 4.050000 2.907676
    endloop
  endfacet
  facet normal -0.951056 0.000000 0.309017
    outer loop
      vertex 19.200000 4.050000 5.000000
      vertex 18.779837 4.050000 3.706872
      vertex 19.200000 0.000000 5.000000
    endloop
  endfacet
  facet normal -0.951056 0.000000 0.309017
    outer loop
      vertex 19.200000 0.000000 5.000000
      vertex 18.779837 4.050000 3.706872
      vertex 18.779837 0.000000 3.706872
    endloop
  endfacet
  facet normal -0.951056 -0.000000 -0.309017
    outer loop
      vertex 19.200000 4.050000 5.000000
      vertex 19.200000 0.000000 5.000000
      vertex 18.779837 4.050000 6.293128
    endloop
  endfacet
  facet normal -0.951056 0.000000 -0.309017
    outer loop
      vertex 18.779837 4.050000 6.293128
      vertex 19.200000 0.000000 5.000000
      vertex 18.779837 0.000000 6.293128
    endloop
  endfacet
  facet normal -0.587785 0.000000 -0.809017
    outer loop
      vertex 18.779837 4.050000 6.293128
      vertex 18.779837 0.000000 6.293128
      vertex 17.679837 4.050000 7.092324
    endloop
  endfacet
  facet normal -0.587785 0.000000 -0.809017
    outer loop
      vertex 17.679837 4.050000 7.092324
      vertex 18.779837 0.000000 6.293128
      vertex 17.679837 0.000000 7.092324
    endloop
  endfacet
  facet normal 0.000000 0.000000 -1.000000
    outer loop
      vertex 17.679837 4.050000 7.092324
      vertex 17.679837 0.000000 7.092324
      vertex 16.320163 4.050000 7.092324
    endloop
  endfacet
  facet normal 0.000000 0.000000 -1.000000
    outer loop
      vertex 16.320163 4.050000 7.092324
      vertex 17.679837 0.000000 7.092324
      vertex 16.320163 0.000000 7.092324
    endloop
  endfacet
  facet normal 0.587785 0.000000 -0.809017
    outer loop
      vertex 16.320163 4.050000 7.092324
      vertex 16.320163 0.000000 7.092324
      vertex 15.220163 4.050000 6.293128
    endloop
  endfacet
  facet normal 0.587785 0.000000 -0.809017
    outer loop
      vertex 15.220163 4.050000 6.293128
      vertex 16.320163 0.000000 7.092324
      vertex 15.220163 0.000000 6.293128
    endloop
  endfacet
  facet normal 0.951056 0.000000 -0.309017
    outer loop
      vertex 14.800000 4.050000 5.000000
      vertex 15.220163 4.050000 6.293128
      vertex 15.220163 0.000000 6.293128
    endloop
  endfacet
  facet normal 0.951056 -0.000000 -0.309017
    outer loop
      vertex 14.800000 0.000000 5.000000
      vertex 14.800000 4.050000 5.000000
      vertex 15.220163 0.000000 6.293128
    endloop
  endfacet
  facet normal 0.000000 1.000000 0.000000
    outer loop
      vertex 16.320163 4.050000 7.092324
      vertex 9.823224 4.050000 10.000000
      vertex 17.679837 4.050000 7.092324
    endloop
  endfacet
  facet normal 0.000000 1.000000 -0.000000
    outer loop
      vertex 16.320163 4.050000 2.907676
      vertex 23.000000 4.050000 0.000000
      vertex 9.823224 4.050000 0.000000
    endloop
  endfacet
  facet normal 0.000000 1.000000 -0.000000
    outer loop
      vertex 18.779837 4.050000 3.706872
      vertex 23.000000 4.050000 0.000000
      vertex 17.679837 4.050000 2.907676
    endloop
  endfacet
  facet normal 0.000000 1.000000 -0.000000
    outer loop
      vertex 9.823224 4.050000 10.000000
      vertex 15.220163 4.050000 3.706872
      vertex 9.823224 4.050000 0.000000
    endloop
  endfacet
  facet normal 0.000000 1.000000 -0.000000
    outer loop
      vertex 15.220163 4.050000 3.706872
      vertex 16.320163 4.050000 2.907676
      vertex 9.823224 4.050000 0.000000
    endloop
  endfacet
  facet normal 0.000000 1.000000 0.000000
    outer loop
      vertex 23.000000 4.050000 10.000000
      vertex 23.000000 4.050000 0.000000
      vertex 18.779837 4.050000 3.706872
    endloop
  endfacet
  facet normal 0.000000 1.000000 0.000000
    outer loop
      vertex 23.000000 4.050000 10.000000
      vertex 18.779837 4.050000 3.706872
      vertex 19.200000 4.050000 5.000000
    endloop
  endfacet
  facet normal 0.000000 1.000000 0.000000
    outer loop
      vertex 23.000000 4.050000 10.000000
      vertex 19.200000 4.050000 5.000000
      vertex 18.779837 4.050000 6.293128
    endloop
  endfacet
  facet normal 0.000000 1.000000 0.000000
    outer loop
      vertex 23.000000 4.050000 10.000000
      vertex 18.779837 4.050000 6.293128
      vertex 17.679837 4.050000 7.092324
    endloop
  endfacet
  facet normal 0.000000 1.000000 0.000000
    outer loop
      vertex 23.000000 4.050000 10.000000
      vertex 17.679837 4.050000 7.092324
      vertex 9.823224 4.050000 10.000000
    endloop
  endfacet
  facet normal 0.000000 1.000000 0.000000
    outer loop
      vertex 15.220163 4.050000 6.293128
      vertex 9.823224 4.050000 10.000000
      vertex 16.320163 4.050000 7.092324
    endloop
  endfacet
  facet normal 0.000000 1.000000 0.000000
    outer loop
      vertex 14.800000 4.050000 5.000000
      vertex 9.823224 4.050000 10.000000
      vertex 15.220163 4.050000 6.293128
    endloop
  endfacet
  facet normal 0.000000 1.000000 0.000000
    outer loop
      vertex 9.823224 4.050000 10.000000
      vertex 14.800000 4.050000 5.000000
      vertex 15.220163 4.050000 3.706872
    endloop
  endfacet
  facet normal 0.000000 1.000000 -0.000000
    outer loop
      vertex 17.679837 4.050000 2.907676
      vertex 23.000000 4.050000 0.000000
      vertex 16.320163 4.050000 2.907676
    endloop
  endfacet
  facet normal -0.642788 0.766044 0.000000
    outer loop
      vertex 9.823224 4.050000 10.000000
      vertex 9.823224 4.050000 0.000000
      vertex 9.600000 3.862693 10.000000
    endloop
  endfacet
  facet normal -0.642788 0.766044 0.000000
    outer loop
      vertex 9.600000 3.862693 10.000000
      vertex 9.823224 4.050000 0.000000
      vertex 9.600000 3.862693 0.000000
    endloop
  endfacet
  facet normal -0.342020 0.939693 0.000000
    outer loop
      vertex 9.600000 3.862693 10.000000
      vertex 9.600000 3.862693 0.000000
      vertex 8.229322 3.363807 10.000000
    endloop
  endfacet
  facet normal -0.342020 0.939693 0.000000
    outer loop
      vertex 8.229322 3.363807 10.000000
      vertex 9.600000 3.862693 0.000000
      vertex 8.229322 3.363807 0.000000
    endloop
  endfacet
  facet normal 0.000000 1.000000 0.000000
    outer loop
      vertex 8.229322 3.363807 10.000000
      vertex 8.229322 3.363807 0.000000
      vertex 6.770678 3.363807 10.000000
    endloop
  endfacet
  facet normal 0.000000 1.000000 -0.000000
    outer loop
      vertex 6.770678 3.363807 10.000000
      vertex 8.229322 3.363807 0.000000
      vertex 6.770678 3.363807 0.000000
    endloop
  endfacet
  facet normal 0.342020 0.939693 -0.000000
    outer loop
      vertex 6.770678 3.363807 10.000000
      vertex 6.770678 3.363807 0.000000
      vertex 5.400000 3.862693 10.000000
    endloop
  endfacet
  facet normal 0.342020 0.939693 -0.000000
    outer loop
      vertex 5.400000 3.862693 10.000000
      vertex 6.770678 3.363807 0.000000
      vertex 5.400000 3.862693 0.000000
    endloop
  endfacet
  facet normal 0.642788 0.766044 -0.000000
    outer loop
      vertex 5.400000 3.862693 10.000000
      vertex 5.400000 3.862693 0.000000
      vertex 4.282613 4.800292 10.000000
    endloop
  endfacet
  facet normal 0.642788 0.766044 -0.000000
    outer loop
      vertex 4.282613 4.800292 10.000000
      vertex 5.400000 3.862693 0.000000
      vertex 4.282613 4.800292 0.000000
    endloop
  endfacet
  facet normal 0.866025 0.500000 0.000000
    outer loop
      vertex 3.553291 6.063515 10.000000
      vertex 4.282613 4.800292 10.000000
      vertex 4.282613 4.800292 0.000000
    endloop
  endfacet
  facet normal 0.866025 0.500000 0.000000
    outer loop
      vertex 3.553291 6.063515 0.000000
      vertex 3.553291 6.063515 10.000000
      vertex 4.282613 4.800292 0.000000
    endloop
  endfacet
  facet normal 0.984808 0.173648 0.000000
    outer loop
      vertex 3.300000 7.500000 10.000000
      vertex 3.553291 6.063515 10.000000
      vertex 3.553291 6.063515 0.000000
    endloop
  endfacet
  facet normal 0.984808 0.173648 0.000000
    outer loop
      vertex 3.300000 7.500000 0.000000
      vertex 3.300000 7.500000 10.000000
      vertex 3.553291 6.063515 0.000000
    endloop
  endfacet
  facet normal 0.984808 -0.173648 0.000000
    outer loop
      vertex 3.553291 8.936485 0.000000
      vertex 3.553291 8.936485 10.000000
      vertex 3.300000 7.500000 10.000000
    endloop
  endfacet
  facet normal 0.984808 -0.173648 0.000000
    outer loop
      vertex 3.300000 7.500000 0.000000
      vertex 3.553291 8.936485 0.000000
      vertex 3.300000 7.500000 10.000000
    endloop
  endfacet
  facet normal 0.866025 -0.500000 0.000000
    outer loop
      vertex 4.282613 10.199708 0.000000
      vertex 4.282613 10.199708 10.000000
      vertex 3.553291 8.936485 10.000000
    endloop
  endfacet
  facet normal 0.866025 -0.500000 0.000000
    outer loop
      vertex 3.553291 8.936485 0.000000
      vertex 4.282613 10.199708 0.000000
      vertex 3.553291 8.936485 10.000000
    endloop
  endfacet
  facet normal 0.642788 -0.766044 0.000000
    outer loop
      vertex 5.400000 11.137307 0.000000
      vertex 5.400000 11.137307 10.000000
      vertex 4.282613 10.199708 10.000000
    endloop
  endfacet
  facet normal 0.642788 -0.766044 0.000000
    outer loop
      vertex 4.282613 10.199708 0.000000
      vertex 5.400000 11.137307 0.000000
      vertex 4.282613 10.199708 10.000000
    endloop
  endfacet
  facet normal 0.342020 -0.939693 0.000000
    outer loop
      vertex 6.770678 11.636193 0.000000
      vertex 6.770678 11.636193 10.000000
      vertex 5.400000 11.137307 10.000000
    endloop
  endfacet
  facet normal 0.342020 -0.939693 0.000000
    outer loop
      vertex 5.400000 11.137307 0.000000
      vertex 6.770678 11.636193 0.000000
      vertex 5.400000 11.137307 10.000000
    endloop
  endfacet
  facet normal 0.000000 -1.000000 0.000000
    outer loop
      vertex 8.229322 11.636193 0.000000
      vertex 8.229322 11.636193 10.000000
      vertex 6.770678 11.636193 10.000000
    endloop
  endfacet
  facet normal -0.000000 -1.000000 -0.000000
    outer loop
      vertex 6.770678 11.636193 0.000000
      vertex 8.229322 11.636193 0.000000
      vertex 6.770678 11.636193 10.000000
    endloop
  endfacet
  facet normal -0.342020 -0.939693 -0.000000
    outer loop
      vertex 9.600000 11.137307 0.000000
      vertex 9.600000 11.137307 10.000000
      vertex 8.229322 11.636193 10.000000
    endloop
  endfacet
  facet normal -0.342020 -0.939693 -0.000000
    outer loop
      vertex 8.229322 11.636193 0.000000
      vertex 9.600000 11.137307 0.000000
      vertex 8.229322 11.636193 10.000000
    endloop
  endfacet
  facet normal -0.642788 -0.766044 -0.000000
    outer loop
      vertex 9.823224 10.950000 0.000000
      vertex 9.823224 10.950000 10.000000
      vertex 9.600000 11.137307 10.000000
    endloop
  endfacet
  facet normal -0.642788 -0.766044 -0.000000
    outer loop
      vertex 9.600000 11.137307 0.000000
      vertex 9.823224 10.950000 0.000000
      vertex 9.600000 11.137307 10.000000
    endloop
  endfacet
  facet normal 0.000000 -1.000000 -0.000000
    outer loop
      vertex 16.320163 10.950000 7.092324
      vertex 23.000000 10.950000 10.000000
      vertex 9.823224 10.950000 10.000000
    endloop
  endfacet
  facet normal -0.000000 -1.000000 0.000000
    outer loop
      vertex 16.320163 10.950000 7.092324
      vertex 17.679837 10.950000 7.092324
      vertex 23.000000 10.950000 10.000000
    endloop
  endfacet
  facet normal 0.000000 -1.000000 -0.000000
    outer loop
      vertex 9.823224 10.950000 0.000000
      vertex 14.800000 10.950000 5.000000
      vertex 9.823224 10.950000 10.000000
    endloop
  endfacet
  facet normal 0.000000 -1.000000 -0.000000
    outer loop
      vertex 15.220163 10.950000 6.293128
      vertex 16.320163 10.950000 7.092324
      vertex 9.823224 10.950000 10.000000
    endloop
  endfacet
  facet normal 0.000000 -1.000000 0.000000
    outer loop
      vertex 18.779837 10.950000 6.293128
      vertex 19.200000 10.950000 5.000000
      vertex 23.000000 10.950000 0.000000
    endloop
  endfacet
  facet normal 0.000000 -1.000000 -0.000000
    outer loop
      vertex 18.779837 10.950000 6.293128
      vertex 23.000000 10.950000 10.000000
      vertex 17.679837 10.950000 7.092324
    endloop
  endfacet
  facet normal 0.000000 -1.000000 0.000000
    outer loop
      vertex 23.000000 10.950000 0.000000
      vertex 23.000000 10.950000 10.000000
      vertex 18.779837 10.950000 6.293128
    endloop
  endfacet
  facet normal 0.000000 -1.000000 0.000000
    outer loop
      vertex 23.000000 10.950000 0.000000
      vertex 19.200000 10.950000 5.000000
      vertex 18.779837 10.950000 3.706872
    endloop
  endfacet
  facet normal -0.000000 -1.000000 0.000000
    outer loop
      vertex 9.823224 10.950000 0.000000
      vertex 23.000000 10.950000 0.000000
      vertex 17.679837 10.950000 2.907676
    endloop
  endfacet
  facet normal 0.000000 -1.000000 0.000000
    outer loop
      vertex 9.823224 10.950000 0.000000
      vertex 17.679837 10.950000 2.907676
      vertex 16.320163 10.950000 2.907676
    endloop
  endfacet
  facet normal 0.000000 -1.000000 0.000000
    outer loop
      vertex 9.823224 10.950000 0.000000
      vertex 15.220163 10.950000 3.706872
      vertex 14.800000 10.950000 5.000000
    endloop
  endfacet
  facet normal 0.000000 -1.000000 0.000000
    outer loop
      vertex 9.823224 10.950000 0.000000
      vertex 16.320163 10.950000 2.907676
      vertex 15.220163 10.950000 3.706872
    endloop
  endfacet
  facet normal 0.000000 -1.000000 -0.000000
    outer loop
      vertex 14.800000 10.950000 5.000000
      vertex 15.220163 10.950000 6.293128
      vertex 9.823224 10.950000 10.000000
    endloop
  endfacet
  facet normal 0.000000 -1.000000 0.000000
    outer loop
      vertex 18.779837 10.950000 3.706872
      vertex 17.679837 10.950000 2.907676
      vertex 23.000000 10.950000 0.000000
    endloop
  endfacet
  facet normal 1.000000 0.000000 -0.000000
    outer loop
      vertex 23.000000 10.950000 10.000000
      vertex 23.000000 10.950000 0.000000
      vertex 23.000000 15.000000 0.000000
    endloop
  endfacet
  facet normal 1.000000 0.000000 0.000000
    outer loop
      vertex 23.000000 15.000000 10.000000
      vertex 23.000000 10.950000 10.000000
      vertex 23.000000 15.000000 0.000000
    endloop
  endfacet
  facet normal 0.000000 1.000000 -0.000000
    outer loop
      vertex 17.679837 15.000000 2.907676
      vertex 23.000000 15.000000 0.000000
      vertex 16.320163 15.000000 2.907676
    endloop
  endfacet
  facet normal 0.000000 1.000000 0.000000
    outer loop
      vertex 17.679837 15.000000 7.092324
      vertex 7.500000 15.000000 10.000000
      vertex 23.000000 15.000000 10.000000
    endloop
  endfacet
  facet normal 0.000000 1.000000 0.000000
    outer loop
      vertex 7.500000 15.000000 0.000000
      vertex 7.500000 15.000000 10.000000
      vertex 14.800000 15.000000 5.000000
    endloop
  endfacet
  facet normal 0.000000 1.000000 0.000000
    outer loop
      vertex 7.500000 15.000000 0.000000
      vertex 14.800000 15.000000 5.000000
      vertex 15.220163 15.000000 3.706872
    endloop
  endfacet
  facet normal 0.000000 1.000000 0.000000
    outer loop
      vertex 7.500000 15.000000 0.000000
      vertex 15.220163 15.000000 3.706872
      vertex 16.320163 15.000000 2.907676
    endloop
  endfacet
  facet normal 0.000000 1.000000 0.000000
    outer loop
      vertex 7.500000 15.000000 0.000000
      vertex 16.320163 15.000000 2.907676
      vertex 23.000000 15.000000 0.000000
    endloop
  endfacet
  facet normal 0.000000 1.000000 -0.000000
    outer loop
      vertex 18.779837 15.000000 3.706872
      vertex 23.000000 15.000000 0.000000
      vertex 17.679837 15.000000 2.907676
    endloop
  endfacet
  facet normal 0.000000 1.000000 0.000000
    outer loop
      vertex 23.000000 15.000000 0.000000
      vertex 18.779837 15.000000 3.706872
      vertex 23.000000 15.000000 10.000000
    endloop
  endfacet
  facet normal 0.000000 1.000000 0.000000
    outer loop
      vertex 18.779837 15.000000 3.706872
      vertex 19.200000 15.000000 5.000000
      vertex 23.000000 15.000000 10.000000
    endloop
  endfacet
  facet normal 0.000000 1.000000 0.000000
    outer loop
      vertex 15.220163 15.000000 6.293128
      vertex 7.500000 15.000000 10.000000
      vertex 16.320163 15.000000 7.092324
    endloop
  endfacet
  facet normal 0.000000 1.000000 0.000000
    outer loop
      vertex 19.200000 15.000000 5.000000
      vertex 18.779837 15.000000 6.293128
      vertex 23.000000 15.000000 10.000000
    endloop
  endfacet
  facet normal 0.000000 1.000000 0.000000
    outer loop
      vertex 18.779837 15.000000 6.293128
      vertex 17.679837 15.000000 7.092324
      vertex 23.000000 15.000000 10.000000
    endloop
  endfacet
  facet normal 0.000000 1.000000 0.000000
    outer loop
      vertex 14.800000 15.000000 5.000000
      vertex 7.500000 15.000000 10.000000
      vertex 15.220163 15.000000 6.293128
    endloop
  endfacet
  facet normal 0.000000 1.000000 0.000000
    outer loop
      vertex 16.320163 15.000000 7.092324
      vertex 7.500000 15.000000 10.000000
      vertex 17.679837 15.000000 7.092324
    endloop
  endfacet
  facet normal -0.156434 0.987688 0.000000
    outer loop
      vertex 5.182373 14.632924 0.000000
      vertex 5.182373 14.632924 10.000000
      vertex 7.500000 15.000000 0.000000
    endloop
  endfacet
  facet normal -0.156434 0.987688 0.000000
    outer loop
      vertex 7.500000 15.000000 0.000000
      vertex 5.182373 14.632924 10.000000
      vertex 7.500000 15.000000 10.000000
    endloop
  endfacet
  facet normal -0.453991 0.891006 0.000000
    outer loop
      vertex 3.091611 13.567627 0.000000
      vertex 3.091611 13.567627 10.000000
      vertex 5.182373 14.632924 0.000000
    endloop
  endfacet
  facet normal -0.453991 0.891006 0.000000
    outer loop
      vertex 5.182373 14.632924 0.000000
      vertex 3.091611 13.567627 10.000000
      vertex 5.182373 14.632924 10.000000
    endloop
  endfacet
  facet normal -0.707107 0.707107 0.000000
    outer loop
      vertex 1.432373 11.908389 0.000000
      vertex 1.432373 11.908389 10.000000
      vertex 3.091611 13.567627 0.000000
    endloop
  endfacet
  facet normal -0.707107 0.707107 0.000000
    outer loop
      vertex 3.091611 13.567627 0.000000
      vertex 1.432373 11.908389 10.000000
      vertex 3.091611 13.567627 10.000000
    endloop
  endfacet
  facet normal -0.891006 0.453991 0.000000
    outer loop
      vertex 0.367076 9.817627 0.000000
      vertex 0.367076 9.817627 10.000000
      vertex 1.432373 11.908389 0.000000
    endloop
  endfacet
  facet normal -0.891006 0.453991 0.000000
    outer loop
      vertex 1.432373 11.908389 0.000000
      vertex 0.367076 9.817627 10.000000
      vertex 1.432373 11.908389 10.000000
    endloop
  endfacet
  facet normal -0.987688 0.156434 0.000000
    outer loop
      vertex 0.000000 7.500000 0.000000
      vertex 0.000000 7.500000 10.000000
      vertex 0.367076 9.817627 0.000000
    endloop
  endfacet
  facet normal -0.987688 0.156434 0.000000
    outer loop
      vertex 0.367076 9.817627 0.000000
      vertex 0.000000 7.500000 10.000000
      vertex 0.367076 9.817627 10.000000
    endloop
  endfacet
  facet normal -0.987688 -0.156434 -0.000000
    outer loop
      vertex 0.000000 7.500000 0.000000
      vertex 0.367076 5.182373 0.000000
      vertex 0.000000 7.500000 10.000000
    endloop
  endfacet
  facet normal -0.987688 -0.156434 0.000000
    outer loop
      vertex 0.000000 7.500000 10.000000
      vertex 0.367076 5.182373 0.000000
      vertex 0.367076 5.182373 10.000000
    endloop
  endfacet
  facet normal -0.891006 -0.453991 -0.000000
    outer loop
      vertex 0.367076 5.182373 0.000000
      vertex 0.969525 4.000000 0.000000
      vertex 0.367076 5.182373 10.000000
    endloop
  endfacet
  facet normal -0.891006 -0.453991 0.000000
    outer loop
      vertex 0.367076 5.182373 10.000000
      vertex 0.969525 4.000000 0.000000
      vertex 0.969525 4.000000 10.000000
    endloop
  endfacet
  facet normal 0.000000 1.000000 0.000000
    outer loop
      vertex -12.448278 4.000000 5.764121
      vertex -16.800000 4.000000 10.000000
      vertex 0.969525 4.000000 0.000000
    endloop
  endfacet
  facet normal 0.000000 1.000000 0.000000
    outer loop
      vertex -4.401722 4.000000 6.236373
      vertex -16.800000 4.000000 10.000000
      vertex 0.969525 4.000000 10.000000
    endloop
  endfacet
  facet normal 0.000000 1.000000 0.000000
    outer loop
      vertex -16.800000 4.000000 0.000000
      vertex -16.800000 4.000000 10.000000
      vertex -14.800000 4.000000 5.000000
    endloop
  endfacet
  facet normal 0.000000 1.000000 0.000000
    outer loop
      vertex -16.800000 4.000000 0.000000
      vertex -14.800000 4.000000 5.000000
      vertex -14.551722 4.000000 4.235879
    endloop
  endfacet
  facet normal 0.000000 1.000000 0.000000
    outer loop
      vertex -16.800000 4.000000 0.000000
      vertex -14.551722 4.000000 4.235879
      vertex -13.901722 4.000000 3.763627
    endloop
  endfacet
  facet normal 0.000000 1.000000 0.000000
    outer loop
      vertex -16.800000 4.000000 0.000000
      vertex -13.901722 4.000000 3.763627
      vertex 0.969525 4.000000 0.000000
    endloop
  endfacet
  facet normal 0.000000 1.000000 0.000000
    outer loop
      vertex -13.901722 4.000000 3.763627
      vertex -13.098278 4.000000 3.763627
      vertex 0.969525 4.000000 0.000000
    endloop
  endfacet
  facet normal 0.000000 1.000000 -0.000000
    outer loop
      vertex -12.200000 4.000000 5.000000
      vertex 0.969525 4.000000 0.000000
      vertex -12.448278 4.000000 4.235879
    endloop
  endfacet
  facet normal 0.000000 1.000000 -0.000000
    outer loop
      vertex -3.598278 4.000000 3.763627
      vertex 0.969525 4.000000 0.000000
      vertex -4.401722 4.000000 3.763627
    endloop
  endfacet
  facet normal 0.000000 1.000000 0.000000
    outer loop
      vertex -13.901722 4.000000 6.236373
      vertex -16.800000 4.000000 10.000000
      vertex -13.098278 4.000000 6.236373
    endloop
  endfacet
  facet normal 0.000000 1.000000 0.000000
    outer loop
      vertex -13.098278 4.000000 6.236373
      vertex -16.800000 4.000000 10.000000
      vertex -12.448278 4.000000 5.764121
    endloop
  endfacet
  facet normal 0.000000 1.000000 0.000000
    outer loop
      vertex -12.200000 4.000000 5.000000
      vertex -12.448278 4.000000 5.764121
      vertex 0.969525 4.000000 0.000000
    endloop
  endfacet
  facet normal 0.000000 1.000000 0.000000
    outer loop
      vertex -14.551722 4.000000 5.764121
      vertex -16.800000 4.000000 10.000000
      vertex -13.901722 4.000000 6.236373
    endloop
  endfacet
  facet normal 0.000000 1.000000 0.000000
    outer loop
      vertex -14.800000 4.000000 5.000000
      vertex -16.800000 4.000000 10.000000
      vertex -14.551722 4.000000 5.764121
    endloop
  endfacet
  facet normal 0.000000 1.000000 0.000000
    outer loop
      vertex -5.051722 4.000000 4.235879
      vertex -16.800000 4.000000 10.000000
      vertex -5.300000 4.000000 5.000000
    endloop
  endfacet
  facet normal 0.000000 1.000000 0.000000
    outer loop
      vertex -4.401722 4.000000 3.763627
      vertex -16.800000 4.000000 10.000000
      vertex -5.051722 4.000000 4.235879
    endloop
  endfacet
  facet normal 0.000000 1.000000 0.000000
    outer loop
      vertex 0.969525 4.000000 0.000000
      vertex -16.800000 4.000000 10.000000
      vertex -4.401722 4.000000 3.763627
    endloop
  endfacet
  facet normal 0.000000 1.000000 -0.000000
    outer loop
      vertex -2.700000 4.000000 5.000000
      vertex 0.969525 4.000000 10.000000
      vertex -2.948278 4.000000 4.235879
    endloop
  endfacet
  facet normal 0.000000 1.000000 0.000000
    outer loop
      vertex 0.969525 4.000000 0.000000
      vertex -3.598278 4.000000 3.763627
      vertex -2.948278 4.000000 4.235879
    endloop
  endfacet
  facet normal 0.000000 1.000000 0.000000
    outer loop
      vertex 0.969525 4.000000 0.000000
      vertex -2.948278 4.000000 4.235879
      vertex 0.969525 4.000000 10.000000
    endloop
  endfacet
  facet normal 0.000000 1.000000 0.000000
    outer loop
      vertex -4.401722 4.000000 6.236373
      vertex 0.969525 4.000000 10.000000
      vertex -3.598278 4.000000 6.236373
    endloop
  endfacet
  facet normal 0.000000 1.000000 0.000000
    outer loop
      vertex -2.700000 4.000000 5.000000
      vertex -2.948278 4.000000 5.764121
      vertex 0.969525 4.000000 10.000000
    endloop
  endfacet
  facet normal 0.000000 1.000000 0.000000
    outer loop
      vertex -2.948278 4.000000 5.764121
      vertex -3.598278 4.000000 6.236373
      vertex 0.969525 4.000000 10.000000
    endloop
  endfacet
  facet normal 0.000000 1.000000 0.000000
    outer loop
      vertex -5.051722 4.000000 5.764121
      vertex -16.800000 4.000000 10.000000
      vertex -4.401722 4.000000 6.236373
    endloop
  endfacet
  facet normal 0.000000 1.000000 0.000000
    outer loop
      vertex -5.300000 4.000000 5.000000
      vertex -16.800000 4.000000 10.000000
      vertex -5.051722 4.000000 5.764121
    endloop
  endfacet
  facet normal 0.000000 1.000000 -0.000000
    outer loop
      vertex -12.448278 4.000000 4.235879
      vertex 0.969525 4.000000 0.000000
      vertex -13.098278 4.000000 3.763627
    endloop
  endfacet
  facet normal 0.951056 0.000000 0.309017
    outer loop
      vertex 15.220163 10.950000 3.706872
      vertex 15.220163 15.000000 3.706872
      vertex 14.800000 15.000000 5.000000
    endloop
  endfacet
  facet normal 0.951056 0.000000 0.309017
    outer loop
      vertex 14.800000 10.950000 5.000000
      vertex 15.220163 10.950000 3.706872
      vertex 14.800000 15.000000 5.000000
    endloop
  endfacet
  facet normal 0.951056 0.000000 -0.309017
    outer loop
      vertex 14.800000 15.000000 5.000000
      vertex 15.220163 15.000000 6.293128
      vertex 15.220163 10.950000 6.293128
    endloop
  endfacet
  facet normal 0.951056 0.000000 -0.309017
    outer loop
      vertex 14.800000 10.950000 5.000000
      vertex 14.800000 15.000000 5.000000
      vertex 15.220163 10.950000 6.293128
    endloop
  endfacet
  facet normal 0.587785 0.000000 0.809017
    outer loop
      vertex 16.320163 10.950000 2.907676
      vertex 16.320163 15.000000 2.907676
      vertex 15.220163 15.000000 3.706872
    endloop
  endfacet
  facet normal 0.587785 0.000000 0.809017
    outer loop
      vertex 15.220163 10.950000 3.706872
      vertex 16.320163 10.950000 2.907676
      vertex 15.220163 15.000000 3.706872
    endloop
  endfacet
  facet normal 0.000000 0.000000 1.000000
    outer loop
      vertex 17.679837 10.950000 2.907676
      vertex 17.679837 15.000000 2.907676
      vertex 16.320163 15.000000 2.907676
    endloop
  endfacet
  facet normal 0.000000 0.000000 1.000000
    outer loop
      vertex 16.320163 10.950000 2.907676
      vertex 17.679837 10.950000 2.907676
      vertex 16.320163 15.000000 2.907676
    endloop
  endfacet
  facet normal -0.587785 0.000000 0.809017
    outer loop
      vertex 18.779837 10.950000 3.706872
      vertex 18.779837 15.000000 3.706872
      vertex 17.679837 15.000000 2.907676
    endloop
  endfacet
  facet normal -0.587785 0.000000 0.809017
    outer loop
      vertex 17.679837 10.950000 2.907676
      vertex 18.779837 10.950000 3.706872
      vertex 17.679837 15.000000 2.907676
    endloop
  endfacet
  facet normal -0.951056 0.000000 0.309017
    outer loop
      vertex 19.200000 15.000000 5.000000
      vertex 18.779837 15.000000 3.706872
      vertex 19.200000 10.950000 5.000000
    endloop
  endfacet
  facet normal -0.951056 0.000000 0.309017
    outer loop
      vertex 19.200000 10.950000 5.000000
      vertex 18.779837 15.000000 3.706872
      vertex 18.779837 10.950000 3.706872
    endloop
  endfacet
  facet normal -0.951056 0.000000 -0.309017
    outer loop
      vertex 19.200000 15.000000 5.000000
      vertex 19.200000 10.950000 5.000000
      vertex 18.779837 15.000000 6.293128
    endloop
  endfacet
  facet normal -0.951056 0.000000 -0.309017
    outer loop
      vertex 18.779837 15.000000 6.293128
      vertex 19.200000 10.950000 5.000000
      vertex 18.779837 10.950000 6.293128
    endloop
  endfacet
  facet normal -0.587785 0.000000 -0.809017
    outer loop
      vertex 18.779837 15.000000 6.293128
      vertex 18.779837 10.950000 6.293128
      vertex 17.679837 15.000000 7.092324
    endloop
  endfacet
  facet normal -0.587785 0.000000 -0.809017
    outer loop
      vertex 17.679837 15.000000 7.092324
      vertex 18.779837 10.950000 6.293128
      vertex 17.679837 10.950000 7.092324
    endloop
  endfacet
  facet normal 0.000000 0.000000 -1.000000
    outer loop
      vertex 17.679837 15.000000 7.092324
      vertex 17.679837 10.950000 7.092324
      vertex 16.320163 15.000000 7.092324
    endloop
  endfacet
  facet normal 0.000000 0.000000 -1.000000
    outer loop
      vertex 16.320163 15.000000 7.092324
      vertex 17.679837 10.950000 7.092324
      vertex 16.320163 10.950000 7.092324
    endloop
  endfacet
  facet normal 0.587785 0.000000 -0.809017
    outer loop
      vertex 16.320163 15.000000 7.092324
      vertex 16.320163 10.950000 7.092324
      vertex 15.220163 15.000000 6.293128
    endloop
  endfacet
  facet normal 0.587785 0.000000 -0.809017
    outer loop
      vertex 15.220163 15.000000 6.293128
      vertex 16.320163 10.950000 7.092324
      vertex 15.220163 10.950000 6.293128
    endloop
  endfacet
endsolid OpenSCAD_Model
